<?xml version="1.0" encoding="UTF-8"?>
<svg width="168px" height="23px" viewBox="0 0 168 23" version="1.1" xmlns="http://www.w3.org/2000/svg" xmlns:xlink="http://www.w3.org/1999/xlink">
    <title>F9CEE439-C884-4405-B09A-73150E6B9B91</title>
    <g id="Page-1" stroke="none" stroke-width="1" fill="none" fill-rule="evenodd">
        <g id="NAv" transform="translate(-203.000000, -25.000000)">
            <g id="Logo" transform="translate(203.000000, 25.000000)">
                <path d="M97.5330095,22 C102.327962,22 104.977804,19.4173913 106.492,16.7710145 L102.64342,14.8898551 C101.760139,16.6434783 99.8673943,17.9826087 97.5330095,17.9826087 C93.8737035,17.9826087 91.0976782,15.0173913 91.0976782,11 C91.0976782,6.9826087 93.8737035,4.0173913 97.5330095,4.0173913 C99.8673943,4.0173913 101.760139,5.3884058 102.64342,7.11014493 L106.492,5.19710145 C105.00935,2.55072464 102.327962,0 97.5330095,0 C91.3815899,0 86.492,4.46376812 86.492,11 C86.492,17.5362319 91.3815899,22 97.5330095,22 Z M122.492,22 L122.492,18.0644678 L113.180679,18.0644678 L113.180679,1 L108.492,1 L108.492,22 L122.492,22 Z M136.023879,23 C142.463477,23 145.492,19.3387334 145.492,13.9602356 L145.492,1 L140.901396,1 L140.901396,13.8306333 C140.901396,16.8438881 139.275557,18.9175258 136.023879,18.9175258 C132.708443,18.9175258 131.082604,16.8438881 131.082604,13.8306333 L131.082604,1 L126.492,1 L126.492,13.9926362 C126.492,19.3063328 129.520523,23 136.023879,23 Z M161.211424,22 C165.322935,22 167.492,19.4812594 167.492,16.3328336 C167.492,13.6881559 165.646676,11.5157421 163.348115,11.1694153 C165.387683,10.7601199 167.071137,8.9970015 167.071137,6.35232384 C167.071137,3.55022489 164.96682,1 160.855309,1 L149.492,1 L149.492,22 L161.211424,22 Z M160.0545,9 L154.492,9 L154.492,4 L160.0545,4 C161.5545,4 162.492,5.08843537 162.492,6.4829932 C162.492,7.94557823 161.5545,9 160.0545,9 Z M159.614677,18 L153.492,18 L153.492,13 L159.614677,13 C161.488283,13 162.492,14.1464968 162.492,15.4840764 C162.492,17.0127389 161.421368,18 159.614677,18 Z" id="BOOKCLUB" fill="#FFFFFF" fill-rule="nonzero"></path>
                <g id="Group" opacity="0.533714658" transform="translate(130.492000, 2.000000)" stroke="#FFFFFF" stroke-width="0.5">
                    <line x1="0.5" y1="-2.84217094e-14" x2="0.5" y2="17.472" id="Path-2"></line>
                    <line x1="1.5" y1="1" x2="1.5" y2="18.472" id="Path-2-Copy-5"></line>
                    <line x1="2.5" y1="-2.84217094e-14" x2="2.5" y2="17.472" id="Path-2-Copy"></line>
                    <line x1="3.5" y1="1" x2="3.5" y2="18.472" id="Path-2-Copy-6"></line>
                    <line x1="4.5" y1="-2.84217094e-14" x2="4.5" y2="17.472" id="Path-2-Copy-2"></line>
                    <line x1="5.5" y1="1" x2="5.5" y2="18.472" id="Path-2-Copy-7"></line>
                    <line x1="6.5" y1="-2.84217094e-14" x2="6.5" y2="17.472" id="Path-2-Copy-3"></line>
                    <line x1="7.5" y1="1" x2="7.5" y2="18.472" id="Path-2-Copy-8"></line>
                    <line x1="8.5" y1="-2.84217094e-14" x2="8.5" y2="17.472" id="Path-2-Copy-4"></line>
                    <line x1="9.5" y1="1" x2="9.5" y2="18.472" id="Path-2-Copy-9"></line>
                </g>
                <path d="M8.96,22 C12.768,22 15.072,19.792 15.072,16.24 C15.072,13.712 13.184,11.344 10.912,10.992 C12.832,10.608 14.656,8.784 14.656,6.096 C14.656,2.736 12.352,0.656 8.768,0.656 L-5.68434189e-14,0.656 L-5.68434189e-14,22 L8.96,22 Z M8.544,10.224 L1.824,10.224 L1.824,2.32 L8.544,2.32 C11.296,2.32 12.736,4.112 12.736,6.288 C12.736,8.496 11.296,10.224 8.544,10.224 Z M8.672,20.336 L1.824,20.336 L1.824,11.888 L8.672,11.888 C11.648,11.888 13.152,13.936 13.152,16.112 C13.152,18.704 11.488,20.336 8.672,20.336 Z M29.216,22.384 C35.456,22.384 39.584,17.584 39.584,11.344 C39.584,5.104 35.456,0.304 29.216,0.304 C22.944,0.304 18.848,5.104 18.848,11.344 C18.848,17.584 22.944,22.384 29.216,22.384 Z M29.216,20.72 C24.032,20.72 20.768,16.72 20.768,11.344 C20.768,5.904 24.032,1.968 29.216,1.968 C34.336,1.968 37.664,5.904 37.664,11.344 C37.664,16.72 34.336,20.72 29.216,20.72 Z M53.664,22.384 C59.904,22.384 64.032,17.584 64.032,11.344 C64.032,5.104 59.904,0.304 53.664,0.304 C47.392,0.304 43.296,5.104 43.296,11.344 C43.296,17.584 47.392,22.384 53.664,22.384 Z M53.664,20.72 C48.48,20.72 45.216,16.72 45.216,11.344 C45.216,5.904 48.48,1.968 53.664,1.968 C58.784,1.968 62.112,5.904 62.112,11.344 C62.112,16.72 58.784,20.72 53.664,20.72 Z M70.368,22 L70.368,14.544 L72.736,11.952 L81.536,22 L83.872,22 L73.92,10.832 L83.008,0.656 L80.672,0.656 L70.368,12.336 L70.368,0.656 L68.544,0.656 L68.544,22 L70.368,22 Z" id="BOOK" fill="#2BBD66" fill-rule="nonzero"></path>
            </g>
        </g>
    </g>
</svg>