<?xml version="1.0" encoding="UTF-8"?>
<svg width="18px" height="18px" viewBox="0 0 18 18" version="1.1" xmlns="http://www.w3.org/2000/svg" xmlns:xlink="http://www.w3.org/1999/xlink">
    <title>318FFD1D-5D84-49D5-9B80-253E71AAD649</title>
    <g id="Page-1" stroke="none" stroke-width="1" fill="none" fill-rule="evenodd">
        <g id="Book-drill" transform="translate(-1177.000000, -23.000000)" fill="#FFFFFF" fill-rule="nonzero">
            <g id="moon" transform="translate(1177.000000, 23.000000)">
                <path d="M17.5619934,10.256985 C17.3778572,10.210758 17.193721,10.256985 17.0326018,10.3725523 C16.434159,10.8810489 15.7436481,11.2970915 14.9840861,11.5744532 C14.2705582,11.8518149 13.4879792,11.9904958 12.6593662,11.9904958 C10.7949868,11.9904958 9.09172661,11.227751 7.87182405,10.0027367 C6.65192149,8.77772239 5.89235952,7.06732503 5.89235952,5.19513334 C5.89235952,4.4092751 6.0304617,3.64653033 6.26063199,2.953126 C6.51381932,2.21349471 6.88209179,1.54320386 7.36544941,0.965366914 C7.57260267,0.711118659 7.52656861,0.341303015 7.27338129,0.133281716 C7.11226208,0.0177143272 6.92812585,-0.0285126283 6.74398961,0.0177143272 C4.78754211,0.549324315 3.08428194,1.72811168 1.86437938,3.29982816 C0.690510882,4.84843117 0,6.76684982 0,8.84706282 C0,11.3664319 1.01274929,13.6546662 2.66997541,15.3188366 C4.32720153,16.983007 6.58287041,18 9.11474364,18 C11.2323103,18 13.1887578,17.2603687 14.7539158,16.0353544 C16.3420909,14.7872266 17.4929423,13.0074888 17.9763,10.9735028 C18.0683681,10.6499141 17.8842318,10.3263254 17.5619934,10.256985 Z" id="Path"></path>
            </g>
        </g>
    </g>
</svg>